<?xml version="1.0" encoding="UTF-8" standalone="no"?>
<!-- Created with Inkscape (http://www.inkscape.org/) -->

<svg
   xmlns:osb="http://www.openswatchbook.org/uri/2009/osb"
   xmlns:dc="http://purl.org/dc/elements/1.1/"
   xmlns:cc="http://creativecommons.org/ns#"
   xmlns:rdf="http://www.w3.org/1999/02/22-rdf-syntax-ns#"
   xmlns:svg="http://www.w3.org/2000/svg"
   xmlns="http://www.w3.org/2000/svg"
   xmlns:xlink="http://www.w3.org/1999/xlink"
   xmlns:sodipodi="http://sodipodi.sourceforge.net/DTD/sodipodi-0.dtd"
   xmlns:inkscape="http://www.inkscape.org/namespaces/inkscape"
   width="256"
   height="256"
   viewBox="0 0 67.733331 67.733336"
   version="1.1"
   id="svg8"
   inkscape:version="0.92.2 (5c3e80d, 2017-08-06)"
   sodipodi:docname="SDKs Icon template.svg"
   inkscape:export-filename="C:\Users\jbautista\Documents\New folder (2)\Objective-Changer-icon v4.png"
   inkscape:export-xdpi="96"
   inkscape:export-ydpi="96">
  <defs
     id="defs2">
    <linearGradient
       inkscape:collect="always"
       id="linearGradient6851">
      <stop
         style="stop-color:#000000;stop-opacity:1;"
         offset="0"
         id="stop6847" />
      <stop
         style="stop-color:#000000;stop-opacity:0"
         offset="1"
         id="stop6849" />
    </linearGradient>
    <linearGradient
       id="linearGradient6799"
       osb:paint="solid">
      <stop
         style="stop-color:#000000;stop-opacity:1;"
         offset="0"
         id="stop6797" />
    </linearGradient>
    <linearGradient
       inkscape:collect="always"
       xlink:href="#linearGradient6851"
       id="linearGradient6855"
       gradientUnits="userSpaceOnUse"
       x1="0.0058476925"
       y1="249.57151"
       x2="-0.0098322183"
       y2="293.79471"
       gradientTransform="matrix(1.021782,0,0,1.0911167,-0.9301825,-21.714802)" />
  </defs>
  <sodipodi:namedview
     id="base"
     pagecolor="#ffffff"
     bordercolor="#666666"
     borderopacity="1.0"
     inkscape:pageopacity="0.0"
     inkscape:pageshadow="2"
     inkscape:zoom="0.7"
     inkscape:cx="-428"
     inkscape:cy="99.97421"
     inkscape:document-units="mm"
     inkscape:current-layer="layer1"
     showgrid="false"
     units="px"
     inkscape:window-width="1920"
     inkscape:window-height="1018"
     inkscape:window-x="1072"
     inkscape:window-y="394"
     inkscape:window-maximized="1"
     inkscape:pagecheckerboard="true" />
  <metadata
     id="metadata5">
    <rdf:RDF>
      <cc:Work
         rdf:about="">
        <dc:format>image/svg+xml</dc:format>
        <dc:type
           rdf:resource="http://purl.org/dc/dcmitype/StillImage" />
        <dc:title></dc:title>
      </cc:Work>
    </rdf:RDF>
  </metadata>
  <g
     inkscape:label="Layer 1"
     inkscape:groupmode="layer"
     id="layer1"
     transform="translate(0,-229.26665)">
    <rect
       style="opacity:0.9;fill:url(#linearGradient6855);fill-opacity:1;stroke:#000000;stroke-width:1.12826788;stroke-miterlimit:4;stroke-dasharray:none;stroke-opacity:0;paint-order:normal"
       id="rect6811"
       width="68.699486"
       height="43.126759"
       x="-0.37829152"
       y="229.03346" />
    <flowRoot
       xml:space="preserve"
       id="flowRoot4598"
       style="fill:black;fill-opacity:1;stroke:none;font-family:Arial;font-style:normal;font-weight:bold;font-size:40px;line-height:1.25;letter-spacing:0px;word-spacing:0px;-inkscape-font-specification:'Arial Bold';font-stretch:normal;font-variant:normal;"><flowRegion
         id="flowRegion4600"
         style="-inkscape-font-specification:'Arial Bold';font-family:Arial;font-weight:bold;font-style:normal;font-stretch:normal;font-variant:normal;"><rect
           id="rect4602"
           width="256.57874"
           height="140.41121"
           x="0"
           y="-1.588899"
           style="-inkscape-font-specification:'Arial Bold';font-family:Arial;font-weight:bold;font-style:normal;font-stretch:normal;font-variant:normal;" /></flowRegion><flowPara
         id="flowPara4604" /></flowRoot>    <flowRoot
       xml:space="preserve"
       id="flowRoot4606"
       style="font-style:normal;font-weight:normal;font-size:40px;line-height:1.25;font-family:sans-serif;letter-spacing:0px;word-spacing:0px;fill:#000000;fill-opacity:1;stroke:none"
       transform="matrix(0.26458333,0,0,0.26458333,0,229.26665)"><flowRegion
         id="flowRegion4608"><rect
           id="rect4610"
           width="258.59906"
           height="150.51273"
           x="-11.111678"
           y="3.4618638" /></flowRegion><flowPara
         id="flowPara4612" /></flowRoot>    <flowRoot
       xml:space="preserve"
       id="flowRoot4624"
       style="fill:black;fill-opacity:1;stroke:none;font-family:sans-serif;font-style:normal;font-weight:normal;font-size:40px;line-height:0;letter-spacing:0px;word-spacing:0px"><flowRegion
         id="flowRegion4626"><rect
           id="rect4628"
           width="10.101525"
           height="50.507626"
           x="126.26907"
           y="39.827354" /></flowRegion><flowPara
         id="flowPara4630" /></flowRoot>    <path
       id="path4700"
       transform="matrix(0.26458333,0,0,0.26458333,0,229.26665)"
       style="fill:#ff0000;fill-opacity:0.01005025;fill-rule:nonzero;stroke:none;stroke-width:3.77952766"
       d="m -429.77344,-99.035156 c -0.22156,-0.0033 -0.44298,0.02532 -0.66601,0.08789 -2.95098,0.828019 -4.74358,3.882751 -7.11524,5.824219 -0.6111,0.50025 -0.99251,0.902053 -1.20117,1.228516 0.0735,0.0083 0.14737,0.01421 0.2207,0.02344 2.78432,-2.806987 7.1901,-4.893757 10.11328,-5.162109 0.78392,-0.07197 1.57133,-0.06187 2.35743,0.0039 -1.13615,-0.929217 -2.40096,-1.986543 -3.70899,-2.005859 z m 16.39844,15.197265 c -1.09121,1.737883 -3.44864,2.47016 -6.15625,1.269532 -0.24933,0.430656 -0.55979,0.821446 -0.95898,1.148437 -0.25072,0.205365 -0.51596,0.37766 -0.78711,0.533203 -0.45277,0.652722 -0.86849,1.116548 -1.21094,1.146485 0.64066,2.596143 1.38662,5.330548 1.72266,4.230468 0.78905,-2.583323 1.4082,-4.564202 1.9082,-6.308593 2.25662,0.353482 4.53378,0.641096 6.7539,1.111328 -0.099,-0.08693 -0.25234,-0.138128 -0.29882,-0.261719 -0.3563,-0.945034 -0.66528,-1.906973 -0.97266,-2.869141 z m -9.11328,4.097657 c -0.0555,-0.224763 -0.0899,-0.356503 -0.14258,-0.570313 -0.13876,0.0409 -0.28186,0.07254 -0.42383,0.105469 0.1618,0.337022 0.35082,0.483689 0.56641,0.464844 z" />
    <path
       style="fill:#ff0000;fill-opacity:0;stroke:#001b23;stroke-width:3.93959498;stroke-miterlimit:4;stroke-dasharray:none;stroke-opacity:0;paint-order:normal"
       d="m 335.95556,94.148022 c 0,-6.884666 0.18308,-7.576144 2.00597,-7.576144 1.22121,0 3.05206,1.580743 4.67992,4.04061 1.47067,2.222335 3.2954,4.04061 4.05494,4.04061 0.93773,0 1.381,-1.29695 1.381,-4.04061 0,-2.918219 0.42089,-4.04061 1.51523,-4.04061 1.21218,0 1.51523,1.515229 1.51523,7.576144 0,6.547828 -0.23994,7.574048 -1.76777,7.560678 -2.46028,-0.0215 -3.64386,-0.99024 -5.85543,-4.792434 -2.38801,-4.105531 -3.89992,-3.72013 -4.30708,1.097913 -0.20366,2.410011 -0.82308,3.709991 -1.76776,3.709991 -1.1363,0 -1.45425,-1.65642 -1.45425,-7.576148 z"
       id="path4730"
       inkscape:connector-curvature="0"
       transform="matrix(0.26458333,0,0,0.26458333,0,229.26665)" />
    <flowRoot
       xml:space="preserve"
       id="flowRoot4614"
       style="font-style:normal;font-weight:normal;font-size:96px;line-height:1.25;font-family:sans-serif;text-align:center;letter-spacing:1.70000005px;word-spacing:5.49000025px;text-anchor:middle;fill:#ffffff;fill-opacity:1;stroke:none"
       transform="matrix(0.26458333,0,0,0.26458333,1.0690781,219.93369)"><flowRegion
         id="flowRegion4616"
         style="font-size:96px;text-align:center;letter-spacing:1.70000005px;word-spacing:5.49000025px;text-anchor:middle;fill:#ffffff;fill-opacity:1"><rect
           id="rect4618"
           width="263.64981"
           height="235.36552"
           x="-9.0913734"
           y="21.644609"
           style="font-size:96px;text-align:center;letter-spacing:1.70000005px;word-spacing:5.49000025px;text-anchor:middle;fill:#ffffff;fill-opacity:1" /></flowRegion><flowPara
         id="flowPara4622"
         style="font-style:normal;font-variant:normal;font-weight:900;font-stretch:normal;font-size:93.33333588px;line-height:0px;font-family:Arial;-inkscape-font-specification:'Arial Heavy';letter-spacing:1.70000005px;word-spacing:5.49000025px;baseline-shift:baseline;fill:#ffffff;fill-opacity:1">CSN</flowPara></flowRoot>    <flowRoot
       xml:space="preserve"
       id="flowRoot4614-3"
       style="font-style:normal;font-weight:normal;font-size:96px;line-height:1.25;font-family:sans-serif;text-align:center;letter-spacing:1.70000005px;word-spacing:5.49000025px;text-anchor:middle;fill:#ffffff;fill-opacity:1;stroke:none"
       transform="matrix(0.26458333,0,0,0.26458333,0.73446803,209.20775)"><flowRegion
         id="flowRegion4616-1"
         style="font-size:96px;text-align:center;letter-spacing:1.70000005px;word-spacing:5.49000025px;text-anchor:middle;fill:#ffffff;fill-opacity:1"><rect
           id="rect4618-3"
           width="263.64981"
           height="235.36552"
           x="-9.0913734"
           y="21.644609"
           style="font-size:96px;text-align:center;letter-spacing:1.70000005px;word-spacing:5.49000025px;text-anchor:middle;fill:#ffffff;fill-opacity:1" /></flowRegion><flowPara
         id="flowPara4620-3"
         style="font-style:normal;font-variant:normal;font-weight:900;font-stretch:normal;font-size:93.33333588px;line-height:0px;font-family:Arial;-inkscape-font-specification:'Arial Heavy';letter-spacing:1.70000005px;word-spacing:5.49000025px;baseline-shift:baseline;fill:#ffffff;fill-opacity:1" /><flowPara
         id="flowPara4622-4"
         style="font-style:normal;font-variant:normal;font-weight:900;font-stretch:normal;font-size:93.33333588px;line-height:0px;font-family:Arial;-inkscape-font-specification:'Arial Heavy';letter-spacing:1.70000005px;word-spacing:0px;baseline-shift:baseline;fill:#ffffff;fill-opacity:1">210</flowPara></flowRoot>    <path
       style="fill:#e41b23;fill-opacity:1;stroke:#e41b23;stroke-width:0.48650491;stroke-miterlimit:4;stroke-dasharray:none;stroke-opacity:1;paint-order:normal"
       d="m 31.279417,287.82156 -0.03197,-9.44942 -3.648786,-0.033 -3.648787,-0.033 v -2.55539 -2.55538 h 10.041962 10.041959 v 2.55523 2.55524 l -3.336924,0.0332 -3.336925,0.0332 -0.03199,9.34899 c -0.02494,7.2891 -0.06617,9.37071 -0.187118,9.44752 -0.08532,0.0542 -1.431853,0.0994 -2.992291,0.10042 l -2.837161,0.002 z"
       id="path4732"
       inkscape:connector-curvature="0" />
  </g>
</svg>
